<?xml version="1.0" standalone="no"?>
<!DOCTYPE svg PUBLIC "-//W3C//DTD SVG 20010904//EN"
 "http://www.w3.org/TR/2001/REC-SVG-20010904/DTD/svg10.dtd">
<svg version="1.0" xmlns="http://www.w3.org/2000/svg"
 width="700.000000pt" height="700.000000pt" viewBox="0 0 700.000000 700.000000"
 preserveAspectRatio="xMidYMid meet">
<metadata>
Created by potrace 1.14, written by Peter Selinger 2001-2017
</metadata>
<g transform="translate(0.000000,700.000000) scale(0.100000,-0.100000)"
fill="#000000" stroke="none">
<path d="M1800 5488 c-73 -7 -190 -26 -267 -43 -13 -3 -33 -7 -45 -10 -47 -10
-193 -58 -202 -66 -6 -5 -17 -9 -26 -9 -21 0 -245 -111 -319 -157 -144 -91
-225 -157 -361 -293 -165 -164 -286 -334 -387 -546 -45 -95 -106 -257 -118
-313 -2 -9 -13 -52 -24 -96 -11 -44 -23 -105 -26 -135 -4 -30 -9 -59 -12 -64
-13 -20 -10 -385 3 -492 37 -302 147 -599 314 -854 195 -296 465 -534 782
-688 177 -85 390 -153 555 -177 23 -3 57 -8 75 -11 73 -12 377 -10 468 2 228
30 419 85 597 170 403 193 723 505 922 898 92 180 134 301 176 497 32 153 40
243 39 434 -1 141 -6 197 -30 345 -20 128 -93 348 -167 500 -159 331 -428 629
-747 827 -78 48 -257 138 -302 152 -18 6 -72 24 -119 40 -111 38 -246 67 -394
86 -77 10 -290 11 -385 3z"/>
<path d="M5010 5367 c-339 -79 -640 -496 -780 -1079 -27 -115 -34 -147 -46
-223 -2 -16 -6 -41 -9 -55 -4 -27 -10 -75 -22 -185 -9 -92 -10 -495 -1 -615
10 -127 35 -292 64 -425 115 -521 365 -937 652 -1080 109 -55 150 -64 275 -61
97 2 121 6 180 30 203 85 366 254 514 535 29 56 111 249 117 276 1 6 14 48 29
96 132 424 167 977 91 1449 -110 692 -412 1204 -778 1321 -77 25 -214 32 -286
16z"/>
<path d="M6624 5175 c-60 -25 -109 -107 -159 -260 -24 -74 -57 -207 -69 -280
-33 -194 -37 -227 -51 -357 -3 -27 -7 -67 -10 -90 -2 -24 -7 -88 -11 -143 -3
-55 -8 -125 -10 -155 -5 -77 -5 -691 0 -770 2 -36 7 -108 11 -160 3 -52 8
-108 10 -125 2 -16 7 -61 10 -100 5 -59 30 -230 51 -350 27 -154 82 -342 125
-425 107 -209 220 -160 318 139 33 100 83 335 101 471 6 47 13 96 15 110 2 14
7 60 10 102 4 43 8 90 10 105 27 220 27 948 1 1238 -19 201 -21 216 -41 355
-24 154 -32 199 -61 315 -33 134 -87 270 -128 326 -41 55 -79 72 -122 54z"/>
</g>
</svg>
